<svg width="35" height="35" viewBox="0 0 35 35" fill="none" xmlns="http://www.w3.org/2000/svg">
<path d="M8.75 20.4167H26.25V17.5H8.75V20.4167ZM8.75 16.0417H26.25V13.125H8.75V16.0417ZM8.75 11.6667H26.25V8.74999H8.75V11.6667ZM32.0833 32.0833L26.25 26.25H5.83333C5.03125 26.25 4.34486 25.9646 3.77416 25.3939C3.20347 24.8233 2.91764 24.1364 2.91666 23.3333V5.83332C2.91666 5.03124 3.2025 4.34485 3.77416 3.77416C4.34583 3.20346 5.03222 2.91763 5.83333 2.91666H29.1667C29.9687 2.91666 30.6556 3.20249 31.2273 3.77416C31.799 4.34582 32.0843 5.03221 32.0833 5.83332V32.0833ZM5.83333 23.3333H27.4896L29.1667 24.9739V5.83332H5.83333V23.3333Z" fill="#85B6FF"/>
</svg>
