<svg width="19" height="19" viewBox="0 0 19 19" fill="none" xmlns="http://www.w3.org/2000/svg">
<path d="M6.484 17.8327H3.194C1.982 17.8327 1 16.8507 1 15.6387V9.1847C1.00074 8.71452 1.10194 8.24993 1.29682 7.82205C1.49171 7.39417 1.77578 7.01287 2.13 6.7037L8.06 1.53869C8.45931 1.19132 8.97074 1 9.5 1C10.0293 1 10.5407 1.19132 10.94 1.53869L16.87 6.70469C17.2241 7.01376 17.5081 7.3949 17.703 7.8226C17.8978 8.2503 17.9991 8.71469 18 9.1847V15.6387C18 16.2204 17.769 16.7783 17.3577 17.1897C16.9465 17.6012 16.3887 17.8324 15.807 17.8327H12.79V11.2517C12.79 10.3437 12.054 9.6067 11.145 9.6067H8.13C7.221 9.6067 6.485 10.3437 6.485 11.2517L6.484 17.8327ZM6.484 17.8327H12.791" stroke="black" stroke-width="1.5" stroke-linejoin="round"/>
</svg>
