<svg width="24" height="24" viewBox="0 0 24 24" fill="none" xmlns="http://www.w3.org/2000/svg">
<path d="M8.984 20.663H5.694C4.482 20.663 3.5 19.681 3.5 18.469V12.015C3.50074 11.5448 3.60194 11.0802 3.79682 10.6523C3.99171 10.2245 4.27578 9.84316 4.63 9.53399L10.56 4.36899C10.9593 4.02161 11.4707 3.83029 12 3.83029C12.5293 3.83029 13.0407 4.02161 13.44 4.36899L19.37 9.53499C19.7241 9.84405 20.0081 10.2252 20.203 10.6529C20.3978 11.0806 20.4991 11.545 20.5 12.015V18.469C20.5 19.0507 20.269 19.6086 19.8577 20.02C19.4465 20.4315 18.8887 20.6627 18.307 20.663H15.29V14.082C15.29 13.174 14.554 12.437 13.645 12.437H10.63C9.721 12.437 8.985 13.174 8.985 14.082L8.984 20.663ZM8.984 20.663H15.291" stroke="#5A81FF" stroke-width="1.5" stroke-linejoin="round"/>
</svg>
