<svg width="20" height="20" viewBox="0 0 20 20" fill="none" xmlns="http://www.w3.org/2000/svg">
<path d="M9.36 0C9.15 0 8.87 0.12 8.57 0.32C8 0.7 6.85 1.9 6.4 3.1C6.06 4 6.05 4.82 6.19 5.43C5.63 5.53 5.22 5.71 5.06 5.78C4.55 6 3.47 6.96 3.37 8.45C3.34 8.97 3.41 9.5 3.57 10C2.91 10.19 2.53 10.43 2.5 10.44C2.18 10.56 1.65 10.93 1.5 11.13C1.15 11.53 0.92 12 0.79 12.5C0.5 13.59 0.6 14.83 1.13 15.83C1.42 16.39 1.82 17 2.26 17.43C3.7 18.91 6.18 19.47 8.14 19.79C10.53 20.19 13.03 20.05 15.26 19.13C18.61 17.74 19.5 15.5 19.64 14.89C19.93 13.5 19.57 12.19 19.42 11.87C19.2 11.41 18.84 10.94 18.25 10.64C17.85 10.39 17.5 10.26 17.24 10.2C17.5 9.25 17.13 8.5 16.62 7.94C15.85 7.12 15.06 7 15.06 7C15.32 6.5 15.42 5.9 15.28 5.32C15.12 4.61 14.73 4.16 14.22 3.86C13.7 3.55 13.06 3.4 12.4 3.28C12.08 3.22 10.75 3.03 10.2 2.27C9.75 1.65 9.74 0.53 9.62 0.2C9.57 0.0700001 9.5 0 9.36 0ZM14 7.61C14.07 7.61 14.13 7.62 14.19 7.62C15.62 7.78 16.64 9.16 16.47 10.69C16.3 12.22 15 13.34 13.57 13.18C12.14 13 11.12 11.65 11.29 10.11C11.45 8.66 12.64 7.56 14 7.61ZM6.62 7.61C7.95 7.65 9.06 8.78 9.16 10.21C9.28 11.75 8.21 13.08 6.78 13.19H6.77C5.34 13.3 4.08 12.14 3.96 10.6C3.85 9.06 4.92 7.73 6.35 7.62C6.44 7.61 6.53 7.61 6.62 7.61ZM6.64 9.31C6.6 9.31 6.57 9.31 6.53 9.32C5.97 9.39 5.57 9.9 5.64 10.45C5.656 10.5818 5.69808 10.709 5.76377 10.8244C5.82947 10.9397 5.91748 11.0409 6.02266 11.1218C6.12784 11.2028 6.24809 11.262 6.3764 11.2961C6.50471 11.3301 6.63851 11.3382 6.77 11.32C7.33 11.25 7.73 10.74 7.67 10.19C7.63788 9.94176 7.51473 9.71429 7.32442 9.5517C7.13411 9.38911 6.89021 9.30297 6.64 9.31ZM13.94 9.33C13.42 9.35 13 9.75 12.96 10.28C12.9519 10.4122 12.9701 10.5446 13.0136 10.6697C13.0571 10.7948 13.1251 10.91 13.2134 11.0086C13.3018 11.1072 13.4089 11.1873 13.5285 11.2442C13.648 11.301 13.7777 11.3336 13.91 11.34C14.0445 11.3539 14.1804 11.3406 14.3097 11.3009C14.4389 11.2612 14.5589 11.1959 14.6624 11.1089C14.7658 11.0219 14.8508 10.9149 14.9121 10.7944C14.9734 10.6739 15.0098 10.5423 15.0192 10.4074C15.0286 10.2725 15.0108 10.1371 14.9668 10.0092C14.9228 9.8814 14.8535 9.76371 14.7631 9.66319C14.6726 9.56267 14.5629 9.48136 14.4404 9.42412C14.3179 9.36688 14.1851 9.33487 14.05 9.33H13.94ZM6.71 14.15C7 14.14 7.26 14.23 7.5 14.28C8.68 14.5 9.7 14.53 10.19 14.53C10.68 14.53 11.69 14.5 12.86 14.28C13.27 14.2 13.74 14.03 14.11 14.28C14.59 14.6 14.24 15.75 13.5 16.53C13.0713 16.9732 12.5565 17.3242 11.9874 17.5615C11.4182 17.7988 10.8066 17.9174 10.19 17.91C8.41 17.91 7.33 17 6.88 16.53C6.14 15.75 5.79 14.6 6.26 14.28C6.4 14.19 6.55 14.15 6.71 14.15Z" fill="#85B6FF"/>
</svg>
