<svg width="20" height="20" viewBox="0 0 20 20" fill="none" xmlns="http://www.w3.org/2000/svg">
<path d="M18.7897 11.87C18.5697 11.41 18.2097 10.94 17.6197 10.64C17.2197 10.39 16.8697 10.26 16.6097 10.2C16.8697 9.25 16.4997 8.5 15.9897 7.94C15.2197 7.12 14.4297 7 14.4297 7C14.6897 6.5 14.7897 5.9 14.6497 5.32C14.4897 4.61 14.0997 4.16 13.5897 3.86C13.0697 3.55 12.4297 3.4 11.7697 3.28C11.4497 3.22 10.1197 3.03 9.56973 2.27C9.11973 1.65 9.10973 0.53 8.98973 0.2C8.93973 0.0700001 8.86973 0 8.72973 0C8.51973 0 8.23973 0.12 7.93973 0.32C7.36973 0.7 6.21973 1.9 5.76973 3.1C5.42973 4 5.41973 4.82 5.55973 5.43C4.99973 5.53 4.58973 5.71 4.42973 5.78C3.91973 6 2.83973 6.96 2.73973 8.45C2.70973 8.89 2.77973 9.34 2.86973 9.78V10.03C2.24973 10.22 1.89973 10.43 1.86973 10.44C1.54973 10.56 1.01973 10.93 0.869732 11.13C0.519732 11.53 0.289732 12 0.159732 12.5C-0.130268 13.59 -0.0302682 14.83 0.499732 15.83C0.789732 16.39 1.18973 17 1.62973 17.43C3.06973 18.91 5.54973 19.47 7.50973 19.79C8.32973 19.93 9.16973 20 9.99973 20C11.5897 20 13.1697 19.73 14.6297 19.13C17.9797 17.74 18.8697 15.5 19.0097 14.89C19.2997 13.5 18.9397 12.19 18.7897 11.87ZM13.4197 9.33C13.5549 9.33487 13.6876 9.36688 13.8101 9.42412C13.9326 9.48136 14.0424 9.56267 14.1328 9.66319C14.2232 9.76371 14.2925 9.8814 14.3365 10.0092C14.3805 10.1371 14.3984 10.2725 14.389 10.4074C14.3796 10.5423 14.3431 10.6739 14.2818 10.7944C14.2205 10.9149 14.1356 11.0219 14.0321 11.1089C13.9286 11.1959 13.8087 11.2612 13.6794 11.3009C13.5501 11.3406 13.4142 11.3539 13.2797 11.34C13.1475 11.3336 13.0178 11.301 12.8982 11.2442C12.7786 11.1873 12.6715 11.1072 12.5832 11.0086C12.4948 10.91 12.4269 10.7948 12.3834 10.6697C12.3399 10.5446 12.3216 10.4122 12.3297 10.28C12.3697 9.75 12.7897 9.35 13.3097 9.33H13.4197ZM17.5497 14.55C17.5397 14.57 17.0697 16.5 14.0597 17.74C12.8397 18.25 11.4697 18.5 9.99973 18.5C9.26973 18.5 8.50973 18.44 7.74973 18.31C6.12973 18.05 3.86973 17.56 2.67973 16.36C2.40973 16.09 2.08973 15.63 1.82973 15.13C1.48973 14.5 1.40973 13.65 1.60973 12.88C1.68973 12.58 1.81973 12.32 1.99973 12.12L2.01973 12.09C2.10973 12 2.31973 11.88 2.39973 11.84L2.50973 11.8L2.62973 11.74C2.68973 11.7 2.82973 11.63 3.03973 11.55C3.49973 12.81 4.64973 13.7 5.95973 13.7C6.03973 13.7 6.10973 13.69 6.18973 13.69C6.60309 13.6585 7.00528 13.5407 7.3704 13.3444C7.73552 13.1481 8.05549 12.8775 8.30973 12.55C8.83973 11.89 9.09973 11.04 9.02973 10.17C8.90973 8.5 7.58973 7.16 6.00973 7.11H5.98973C5.86973 7.11 5.76973 7.11 5.67973 7.12C5.36973 7.15 5.09973 7.23 4.82973 7.34C4.91973 7.24 4.99973 7.17 5.02973 7.15C5.15973 7.1 5.43973 7 5.81973 6.91L7.36973 6.63L7.01973 5.09C6.97973 4.9 6.89973 4.35 7.17973 3.63C7.32973 3.2 7.63973 2.76 7.94973 2.38C8.04973 2.65 8.17973 2.91 8.36973 3.15C9.13973 4.23 10.4897 4.58 11.4297 4.74L11.4997 4.76C11.9697 4.84 12.4997 4.95 12.8297 5.15C13.0397 5.28 13.1297 5.41 13.1897 5.67C13.2397 5.87 13.2097 6.1 13.0997 6.31L12.5797 7.2C11.3197 7.5 10.3197 8.64 10.1597 10.06C9.95973 11.87 11.1497 13.46 12.8697 13.68C12.9897 13.69 13.1097 13.7 13.2197 13.7C13.9297 13.7 14.6197 13.44 15.1897 12.95C15.5997 12.59 15.9097 12.13 16.1097 11.62L16.2697 11.66C16.3697 11.68 16.5397 11.74 16.8197 11.91L16.8697 11.95L16.9397 12C17.1497 12.08 17.3097 12.26 17.4197 12.5C17.4997 12.67 17.7497 13.6 17.5497 14.55ZM5.00973 10.45C4.93973 9.9 5.33973 9.39 5.89973 9.32C5.93973 9.31 5.96973 9.31 6.00973 9.31C6.51973 9.3 6.97973 9.67 7.03973 10.19C7.09973 10.74 6.69973 11.25 6.13973 11.32C6.00824 11.3382 5.87444 11.3301 5.74613 11.2961C5.61782 11.262 5.49757 11.2028 5.39239 11.1218C5.28721 11.0409 5.1992 10.9397 5.13351 10.8244C5.06781 10.709 5.02573 10.5818 5.00973 10.45ZM6.07973 14.15C6.36973 14.14 6.62973 14.23 6.86973 14.28C8.04973 14.5 9.06973 14.53 9.55973 14.53C10.0497 14.53 11.0597 14.5 12.2297 14.28C12.6397 14.2 13.1097 14.03 13.4797 14.28C13.9597 14.6 13.6097 15.75 12.8697 16.53C12.441 16.9732 11.9263 17.3242 11.3571 17.5615C10.7879 17.7988 10.1763 17.9174 9.55973 17.91C7.77973 17.91 6.69973 17 6.24973 16.53C5.50973 15.75 5.15973 14.6 5.62973 14.28C5.76973 14.19 5.91973 14.15 6.07973 14.15Z" fill="#85B6FF"/>
</svg>
